<?xml version="1.0" encoding="UTF-8" standalone="no"?>
<svg
   xmlns:dc="http://purl.org/dc/elements/1.1/"
   xmlns:cc="http://creativecommons.org/ns#"
   xmlns:rdf="http://www.w3.org/1999/02/22-rdf-syntax-ns#"
   xmlns:svg="http://www.w3.org/2000/svg"
   xmlns="http://www.w3.org/2000/svg"
   xmlns:sodipodi="http://sodipodi.sourceforge.net/DTD/sodipodi-0.dtd"
   xmlns:inkscape="http://www.inkscape.org/namespaces/inkscape"
   height="16"
   viewBox="0 0 16 16"
   width="16"
   version="1.1"
   id="svg4"
   sodipodi:docname="smooth_follower_icon.svg"
   inkscape:version="0.92.3 (2405546, 2018-03-11)">
  <metadata
     id="metadata10">
    <rdf:RDF>
      <cc:Work
         rdf:about="">
        <dc:format>image/svg+xml</dc:format>
        <dc:type
           rdf:resource="http://purl.org/dc/dcmitype/StillImage" />
        <dc:title></dc:title>
      </cc:Work>
    </rdf:RDF>
  </metadata>
  <defs
     id="defs8" />
  <sodipodi:namedview
     pagecolor="#ffffff"
     bordercolor="#666666"
     borderopacity="1"
     objecttolerance="10"
     gridtolerance="10"
     guidetolerance="10"
     inkscape:pageopacity="0"
     inkscape:pageshadow="2"
     inkscape:window-width="1280"
     inkscape:window-height="1023"
     id="namedview6"
     showgrid="false"
     inkscape:zoom="14.75"
     inkscape:cx="-1.5017423"
     inkscape:cy="14.47225"
     inkscape:window-x="0"
     inkscape:window-y="0"
     inkscape:window-maximized="1"
     inkscape:current-layer="svg4" />
  <path
     d="M 9.0338983,1 V 4 H 11.033898 V 1 Z m -4,4 v 2 h 3 V 5 Z M 10.033898,5 C 9.4816183,5 9.0338983,5.44772 9.0338983,6 c 0,0.55228 0.44772,1 0.9999997,1 0.55228,0 1,-0.44772 1,-1 0,-0.55228 -0.44772,-1 -1,-1 z m 2,0 v 2 h 3 V 5 Z M 9.0338983,8 v 3 H 11.033898 V 8 Z"
     id="path2"
     inkscape:connector-curvature="0"
     style="fill:#fc9c9c"
     sodipodi:nodetypes="ccccccccccssssscccccccccc" />
  <path
     inkscape:connector-curvature="0"
     style="fill:#fc9c9c;fill-opacity:1"
     d="M 0.98332621,8.2181936 A 1,1 0 0 0 0.69881471,8.9142413 1,1 0 0 0 1.6987344,9.914161 l 3.2427916,3e-7 -3.2427208,3.2427207 c -0.3905209,0.390521 -0.3905351,1.023679 0,1.414214 0.3905351,0.390535 1.0236926,0.390521 1.4142136,0 l 3.2427207,-3.242721 2e-7,3.242792 a 1,1 0 0 0 0.9999195,0.999919 1,1 0 0 0 0.9999197,-0.99992 V 8.9143124 A 1.0001,1.0001 0 0 0 7.3556592,7.9143927 l -5.6568541,-4e-7 A 1,1 0 0 0 0.98342521,8.2182361 Z"
     id="path2-3" />
</svg>
